<?xml version="1.0" encoding="utf-8"?>
<!-- Generator: Adobe Illustrator 23.0.1, SVG Export Plug-In . SVG Version: 6.00 Build 0)  -->
<svg version="1.1" id="Layer_7_xA0_Image_1_" xmlns="http://www.w3.org/2000/svg" xmlns:xlink="http://www.w3.org/1999/xlink"
	 x="0px" y="0px" viewBox="0 0 370 317" style="enable-background:new 0 0 370 317;" xml:space="preserve">
<style type="text/css">
	.st0{fill:#020100;}
	.st1{fill:#733409;}
	.st2{fill:#B48455;}
	.st3{fill:#76380D;}
	.st4{fill:#9B6537;}
	.st5{fill:#74360B;}
	.st6{fill:#A46E42;}
	.st7{fill:#76380C;}
	.st8{fill:#8C5427;}
	.st9{fill:#814417;}
	.st10{fill:#7D3F13;}
	.st11{fill:#D4A476;}
	.st12{fill:#75370C;}
	.st13{fill:#824518;}
	.st14{fill:#D3A476;}
	.st15{fill:#783A0F;}
	.st16{fill:#7F4216;}
	.st17{fill:#73340A;}
	.st18{fill:#884B1D;}
	.st19{fill:#8D5427;}
	.st20{fill:#8D5022;}
	.st21{fill:#73350A;}
	.st22{fill:#8E5A32;}
	.st23{fill:#7A3D11;}
	.st24{fill:#884C1E;}
	.st25{fill:#AE794D;}
	.st26{fill:#804316;}
	.st27{fill:#7D451C;}
	.st28{fill:#76390E;}
	.st29{fill:#885027;}
	.st30{fill:#8F5324;}
	.st31{fill:#85491C;}
	.st32{fill:#BE8C5F;}
	.st33{fill:#773A10;}
	.st34{fill:#A97448;}
	.st35{fill:#72350A;}
	.st36{fill:#965A2A;}
	.st37{fill:#783B0F;}
	.st38{fill:#74370C;}
	.st39{fill:#72350B;}
	.st40{fill:#6F3A14;}
	.st41{fill:#A26B3F;}
	.st42{fill:#804317;}
	.st43{fill:#8B5227;}
	.st44{fill:#73360B;}
	.st45{fill:#8F5425;}
	.st46{fill:#73370C;}
	.st47{fill:#AA794E;}
	.st48{fill:#9D663A;}
	.st49{fill:#6C3109;}
	.st50{fill:#73350B;}
	.st51{fill:#75390F;}
	.st52{fill:#8F5A31;}
	.st53{fill:#623A1D;}
	.st54{fill:#8C5123;}
	.st55{fill:#89532A;}
	.st56{fill:#652E08;}
	.st57{fill:#815637;}
	.st58{fill:#A47041;}
	.st59{fill:#8D5429;}
	.st60{fill:#BA8659;}
	.st61{fill:#82451A;}
	.st62{fill:#6C3F1E;}
	.st63{fill:#874A1C;}
	.st64{fill:#030302;}
	.st65{fill:#975C2C;}
	.st66{fill:#A16635;}
	.st67{fill:#AB7649;}
	.st68{fill:#C08C5F;}
	.st69{fill:#83471C;}
	.st70{fill:#996035;}
	.st71{fill:#9C6539;}
	.st72{fill:#AC774A;}
	.st73{fill:#985F33;}
	.st74{fill:#8D5327;}
</style>
<g>
	<g>
		<path class="st0" d="M21,106.12c0.44-1.04,2.73-1.76,0.58-3.26c-0.05-0.04-0.07-0.13-0.08-0.2c-0.08-0.43,2.25-3.5,2.74-3.58
			c8.42-1.39,16.84-2.69,25.34-3.56c0.44-0.04,0.92,0,1.31-0.17c0.76-0.33,1.85-0.09,2.19-1.21c0.32-1.08-0.5-1.61-1.08-2.24
			c-1.49-1.64-3.02-3.26-4.93-4.42c-4.02-2.44-5.3-6.27-5.62-10.65c-0.37-5.14,1.21-9.85,3.2-14.52c-0.2-0.04-0.4-0.1-0.6-0.13
			c-0.9-0.16-2.2,0.51-2.61-0.58c-0.51-1.35,1.02-1.75,1.78-2.45c0.8-0.74,1.73-1.35,2.64-2.04c-4.2-1.76-4.2-1.76-1.44-3.94
			c-2.12-1.81-2.12-1.81,2.86-4.84c-0.6-0.43-1.66-0.44-1.51-1.41c0.12-0.77,0.85-0.96,1.41-1.28c0.58-0.32,1.17-0.62,1.75-0.94
			c0.51-0.27,1-0.57,1.57-0.89c-0.22-0.31-0.37-0.57-0.55-0.78c-2.81-3.18-2.73-3.68,1.24-5.07c1.63-0.57,2.12-1.39,1.38-2.97
			c-0.28-0.59-0.43-1.25-0.66-1.87c-0.51-1.43,0.17-1.97,1.49-1.86c1.53,0.12,3.06,0.36,4.9,0.59c-0.38-1.52-0.65-2.92-1.09-4.26
			c-0.49-1.5-0.14-2.09,1.5-1.89c1.44,0.17,3.37,0.8,4.21,0.13c0.96-0.78-0.35-2.53-0.55-3.88c-0.18-1.14,0.17-1.75,1.41-1.51
			c1.52,0.3,3.06,0.51,4.53,0.98c1.5,0.48,2.06,0.12,1.87-1.44c-0.11-0.89-0.27-1.85,0.73-2.34c0.89-0.43,1.49,0.39,2.18,0.74
			c0.46,0.23,0.87,0.55,1.32,0.81c4.19,2.4,4.19,2.4,5.6-2.23c0.3,0,0.59,0,0.89,0c3.03,2.06,5.08,5.08,7.55,7.69
			c1.26,1.33,2.27,2.92,3.14,4.54c0.76,1.41,1.73,2.21,3.4,2.44c2.36,0.32,2.35,0.45,2.63-1.84c0.36-2.91,1.28-3.7,4.09-2.93
			c2,0.55,2.59-0.19,3.02-1.95c0.82-3.34,1.76-3.71,4.87-2.22c2.61,1.25,2.61,1.25,3.78-1.31c1.01-2.19,2.04-2.58,4.22-1.56
			c0.4,0.19,0.78,0.43,1.17,0.62c0.99,0.48,1.61,1.84,2.74,1.69c1.14-0.15,0.98-1.68,1.63-2.45c1.06-1.24,2.35-1.2,3.25,0.22
			c0.67,1.06,1,2.3,1.55,3.42c1.77,3.65,3.17,7.47,4.8,11.18c2.87,6.54,1.67,12.69-2.31,18.42c-1.59,2.29-3.1,4.47-3.6,7.44
			c-0.42,2.49-2.28,4.63-4.56,6.03c-1.47,0.9-2.3,2.12-3.06,3.62c-2.04,4-4.57,7.74-6.46,11.84c-0.67,1.47-0.55,1.99,1,2.52
			c4.32,1.49,8.61,3.1,12.93,4.53c4.57,1.51,7.02,4.64,8.78,8.68c1.17,2.7,1.83,5.56,2.19,8.49c0,0.89,0,1.77,0,2.66
			c-0.55,2.27-0.63,4.62-1.54,6.84c-2.86,6.95-7.59,9.76-15.04,8.65c-5.03-0.75-10.09-1.37-15.12-2.13
			c-6.4-0.97-12.65-0.32-18.69,2.1c-2.67,1.07-5.4,1.99-8.18,2.74c-1.14,0.3-2.19,0.38-2.97-0.74c-0.21-0.3-0.5-0.66-0.85-0.67
			c-4.11-0.19-6.84-3.39-10.39-4.83c-1.36-0.55-2.36-0.85-3.68-0.14c-2.88,1.55-6.08,2.26-9.12,3.4c-1.47,0.55-2.47,0.04-2.59-1.66
			c-0.03-0.36,0.04-1.02-0.2-1.01c-2.11,0.06-2.6-2.28-4.27-2.81c-1.35-0.43-1.98-1.21-1.61-2.65c0.1-0.41,0.44-0.94-0.05-1.21
			c-1.84-0.99-1.12-2.25-0.75-3.76c0.32-1.33-0.55-2.77-1.01-4.09c-0.23-0.65-1.34-0.16-2.04,0.05c-3.33,0.97-6.68,1.89-9.99,2.9
			c-1.07,0.33-2.15,0.51-3.27,0.48c-2.06-0.04-4.27,0.18-4.57-2.79c-0.03-0.3-0.43-0.59-0.63-0.89C21,106.42,21,106.27,21,106.12z"
			/>
		<path class="st1" d="M123.9,122.47c-0.91-0.02-1.86,0.32-2.69-0.32c0.08-0.74,0-1.48-0.33-2.15c-1.46-2.91-2.44-5.98-2.65-9.24
			c-0.17-2.78-2.27-2.31-3.99-2.52c-5.46-0.23-10.91-0.51-16.35,0.2c-5.69,0.75-11.43,1.07-17.07,2.26
			c-2.88,0.61-5.76,1.21-8.6,1.99c-3.01,0.82-5.79,2.12-8.19,4.15c-3.24,1.58-6.54,3.01-10,4.05c-0.76,0.23-1.4,0.56-1.61-0.64
			c-0.12-0.7-0.71-1.08-1.43-1.21c-0.28-0.05-0.81-0.16-0.8-0.22c0.16-3.6-3.05-1.61-4.36-2.73c1.92-3.21,1.92-3.21-1.61-3.52
			c0.56-0.75,1.06-1.45,1.6-2.13c1.36-1.74,1.24-2.08-1.3-2.77c1.82-1.18,1.94-2.91,1.1-4.38c-0.56-0.98-1.89,0.11-2.88,0.09
			c-2.28-1.76-0.6-3.52,0-5.28c1.47-0.8,3.09-0.92,4.7-0.87c2.58,0.08,4.95-0.61,7.24-1.72c5.57-2.71,11.42-4.21,17.65-4.03
			c0.51,0.01,1.06,0.12,1.54,0.01c0.76-0.17,1.85-0.14,2.01-1.04c0.17-1-1.16-1.32-1.64-1.35c-1.68-0.12-1.68-1.49-2.15-2.44
			c-3.77-7.57-2.17-15.05,0.52-22.48c1.25-3.46,2.77-6.81,5.04-9.77c4.33-5.66,12.43-7.98,19.07-5.47c1.06,0.4,1.63,1.03,1.98,2.13
			c0.46,1.47,0.97,3.02,1.88,4.22c2.06,2.73,2.03,5.54,0.95,8.55c-2.74,7.66-2.52,15.29,0.27,22.89c0.23,0.61,0.29,1.28,0.39,1.93
			c0.11,0.65,0.08,1.52,1.03,1.33c0.77-0.15,0.5-0.88,0.42-1.48c-0.37-2.78-1.57-5.34-2-8.13c-0.84-5.42-0.57-10.71,1.19-15.91
			c0.96-2.85,1.73-5.66-0.04-8.5c-0.45-0.71-0.13-1.31,0.57-1.63c7.05-3.2,14.23-5.31,21.93-2.36c2.49,0.95,2.46,1.11,0.94,3.4
			c-0.77,1.16-1.41,2.11-1.24,3.9c0.2,1.99-1.62,4.04-3.42,5.09c-2.46,1.44-3.6,3.51-4.93,5.89c-2.29,4.12-4.41,8.34-6.71,12.44
			c-1.3,2.31-1.3,2.35,1.16,3.1c5.71,1.72,11.33,3.68,16.88,5.86c1.29,0.51,2.32,1.24,3.03,2.43c-0.59,1-1.69,1.1-2.64,1.45
			c-5.79,2.15-8.46,5.27-7.95,13.03c0.27,4.07,1.22,7.99,3.16,11.63C123.92,120.89,124.44,121.62,123.9,122.47z"/>
		<path class="st2" d="M114.56,107.85c3.78-0.05,4.13,0.25,4.42,4.15c0.22,3,1.51,5.62,2.66,8.31c0.27,0.64,1.03,1.54-0.43,1.83
			c-5.08-0.87-10.21-1.27-15.29-2.19c-7.31-1.32-14.45-0.08-21.17,2.89c-2.39,1.05-4.52,0.16-6.74,0.2c-0.3,0-1.89-0.69-2.45-1.67
			c-0.3-0.53-0.8-0.55-1.35-0.31c-0.78,0.35-1.68,0.85-1.62-0.74c0-0.14-0.35-0.45-0.43-0.42c-1.34,0.52-2.3-0.59-3.24-0.74
			c-1.73-0.28-2.28-1.37-3.19-2.32c-0.42-0.85,0.19-1.17,0.76-1.54c3.65-2.42,7.68-3.58,12.03-3.77c0.75,0.39,1.53,0.42,2.35,0.23
			c4.91-1.15,9.99-1.2,14.9-2.4c1.64-0.4,3.35-0.46,5-0.81c0.21-0.07,0.43-0.11,0.65-0.12c1.68,0.58,3.32,0.7,4.82-0.49
			C109.01,107.85,111.79,107.94,114.56,107.85z"/>
		<path class="st3" d="M42.72,98.11c-0.01,0.86,0.21,1.8-0.38,2.51c-0.91,1.11,0.32,1.84,0.38,2.76c-5.02,2.1-10.38,3.09-15.56,4.69
			c-1.02,0.31-3.09,1.13-1.99-1.57c0.42-1.01-0.94-0.79-1.11-1.9c-0.28-1.86,1.68-2.33,1.33-3.77c0.99-0.48,2.2-0.16,3.13-0.86
			C33.16,98.68,37.93,98.33,42.72,98.11z"/>
		<path class="st4" d="M129.22,121.24c-0.94,0.65-2,0.9-3.13,0.83c-1.7-1.72-2.7-3.85-3.47-6.1c-1.08-3.17-1.49-6.48-1.53-9.79
			c-0.05-4.08,1.64-7.29,5.56-9c1.67-0.73,3.24-1.8,5.19-1.7c1.01,1.14,1.61,2.48,1.92,3.95c-1.81,1.11-3.91,1.73-5.45,3.28
			c-0.57,0.16-1.17,0.01-1.75,0.17c-1.89,0.51-2.7,2.04-2.07,3.89c0.41,1.19,1.02,2.31,1.84,3.25
			C129.17,113.3,130.45,116.94,129.22,121.24z"/>
		<path class="st5" d="M103.47,29.84c4.03,1.1,5.7,4.65,7.81,7.68c2.24,3.21,2.67,6.93,2.4,10.77c-0.06,0.8-0.16,1.69-1.12,1.46
			c-1.2-0.29-2.8,1.62-3.59-0.59c-1.33-3.72-3.76-6.81-5.78-10.13c-0.49-0.81-1.04-1.74-1.8-2.19c-3.26-1.95-2.22-4.74-1.45-7.35
			c0.37-1.28,1.44-0.57,2.22-0.11c0.44,1.07,0.8,2.17,1.52,3.13c0.42,0.57,0.75,1.42,0.05,2.02c-0.88,0.75-1.23-0.33-1.78-0.69
			c-0.18-0.12-0.31-0.3-0.52-0.42c4.67,3.79,8.32,8.26,9.57,14.35c-0.25-1.87-1.13-3.48-1.86-5.14c-0.54-1.22-0.89-2.44-1-3.8
			c-0.2-2.46-2.07-4.15-3.27-6.15C104.31,31.78,103.21,31.14,103.47,29.84z"/>
		<path class="st6" d="M69.28,69.76c0.06,0.36-0.02,0.67-0.31,0.92c-0.86,0.32-0.27,1.82-1.49,1.86c-2.66-1.1-5.31-0.43-7.95,0.05
			c-0.14,0.02-0.28,0.04-0.43,0.04c-0.07,0-0.14-0.01-0.21-0.02c0.11,0.12,0.25,0.04,0.35,0.03c1.72-0.3,3.4-0.25,4.93,0.75
			c-0.05,1.79-1.13,1.55-2.28,1.16c0.17,0.22-1.17-0.76-0.21,0.28c0.36,0.39-0.69,0.74-1.21,0.88c-2.45,0.68-4.97,0.41-7.47,0.48
			c-1.25,0.04-2.5-0.12-3.74,0.08c-0.59,0.09-1.52,0.08-1.57-0.34c-0.22-1.59-1.02-0.61-1.62-0.48c-0.28,0.06-0.56,0.11-0.86,0.12
			c-0.76-0.04-1.53-0.26-1.64-1.07c-0.16-1.13,0.63-1.81,1.52-2.34c2.87,0.07,5.75,0.09,8.63,0.03c-2.47-0.01-4.95,0.05-7.42,0
			c-0.95-0.6-1.63-1.59-2.72-2c0.03-0.15,0.05-0.29,0.08-0.44c0.23-0.55,0.94-0.65,0.98-1.5c0.04-0.82,0.94-1.15,1.84-0.91
			c1.41,0.82,2.81,1.47,4.52,0.73c0.82-0.35,1.68,0.32,2.56,0.4c2.52,0.22,5.03,0.67,7.58,0.54c1.3,1.01,2.88,0.87,4.38,1.09
			c0.71,0.1,0.56-0.5,0.75-0.83C67.4,68.6,68.46,68.47,69.28,69.76z"/>
		<path class="st7" d="M93.03,33.46c3.86,0.19,5.72,2.67,7.51,4.68c2.82,3.17,4.98,6.89,6.78,10.78c0.55,1.18,0.43,1.74-0.83,2.32
			c-6.22,2.83-5.01,3.29-6.98-3.15C97.99,43.11,96.73,38.05,93.03,33.46z"/>
		<path class="st8" d="M128.33,102.46c1.25-2.02,3.19-2.78,5.44-3.01c3.79,7.11,1.89,14.86-2.71,20.46
			c-0.33-2.59-0.71-5.17-1.69-7.63c-0.16-0.41-0.05-0.91,0.16-1.29C131.27,107.84,131.21,104.95,128.33,102.46z"/>
		<path class="st9" d="M56.95,39.15c7.43,1.49,13.98,4.7,19.93,10.24c-6.01-0.94-11.08-3.38-16.42-4.88
			c-2.23-0.87-4.59-1.39-6.7-2.61c-0.57-0.33-1.21-0.58-1.61-1.12c-0.49-0.66-0.55-1.22,0.5-1.37
			C54.08,39.21,55.48,38.6,56.95,39.15z"/>
		<path class="st10" d="M74.64,45.39c-5.74-4.33-12.3-6.77-19.19-8.54c-1.78-0.46-1.23-2.62-2.32-4.26
			c8.81,1.18,15.62,5.21,21.54,10.99C75.37,44.98,75.37,44.98,74.64,45.39z"/>
		<path class="st11" d="M131.84,95.49c-1.54,0.69-3.05,1.45-4.62,2.05c-5.02,1.9-6.02,6.82-5.49,10.89
			c0.59,4.53,1.27,9.05,4.27,12.78c0.15,0.19,0.07,0.57,0.09,0.86c-0.66,0.53-1.42,0.51-2.19,0.39c-0.89-2.96-2.9-5.47-3.33-8.61
			c-0.39-2.83-1.04-5.61-0.82-8.53c0.35-4.57,2.39-7.82,6.68-9.54c1.5-0.6,3.03-1.13,4.54-1.69
			C131.27,94.57,131.55,95.03,131.84,95.49z"/>
		<path class="st12" d="M68.41,36.15c-2.23-0.95-4.46-1.91-6.7-2.84c-2.68-1.13-2.32-3.81-3.17-5.92
			c7.66-0.63,15.31,5.58,19.69,14.44c-2.33,0.58-2.18-1.63-3.04-2.7c-2.4-1.53-4.46-3.52-6.79-5.12c-1.81-1.23-3.54-2.6-5.38-3.64
			c1.59,1.16,3.24,2.37,4.58,3.92C68.05,34.81,68.81,35.23,68.41,36.15z"/>
		<path class="st12" d="M124.77,32.48c1.52,5.23,3.08,10.46,0.94,15.9c-0.44,1.12-0.94,2.01-2.42,1.34c-0.84-0.38-1.27-0.7-1-1.8
			c1.39-5.57-0.38-10.79-2.15-15.94c-0.75-2.19-2.76-3.61-4.4-5.21c-1.18-1.15-1.43-4.03-0.17-4.89c1.14-0.78,1.84,0.58,2.62,1.22
			c-0.12,0.62-0.72,0.85-1.06,1.29c-0.1,0.16-0.2,0.33-0.26,0.51c0.55,2.18,2.47,3.26,3.88,4.7c1.4,1.43,2.13,2.95,2.54,4.96
			c0.76,3.78,1.49,7.51,0.93,11.28c0.66-3.51,0.12-7.06-0.39-10.62C123.68,34.22,123.75,33.16,124.77,32.48z"/>
		<path class="st13" d="M130.96,47.6c-0.27,1.34-1.17,2.35-1.87,3.47c-0.39,0.63-0.78,1.09-1.54,0.43
			c-0.55-0.46-1.32-0.72-0.82-1.72c3.08-6.16,0.97-12.21-0.48-18.26c-0.17-0.71-0.4-1.41-0.61-2.11c0.02-0.6-0.22-1.15-0.34-1.72
			c-0.19-0.93-0.11-1.8,1.18-1.81c1.15,2.09,2.02,4.31,2.7,6.59c0.35,1.27,0.71,2.56,1.21,3.76
			C131.99,39.98,131.55,43.78,130.96,47.6z"/>
		<path class="st14" d="M128.33,102.46c3.08,1.83,3.85,3.89,2.3,7.21c-0.78,1.68-0.87,3.11-0.01,4.71c0.94,1.76,0.94,3.64,0.43,5.53
			c-0.52,0.56-1.08,1.09-1.83,1.34c-0.67-0.47-0.62-1.18-0.4-1.79c1.15-3.21-0.44-5.71-2.18-8.08c-0.96-1.3-1.99-2.55-2.59-4.05
			c-0.48-1.2-1.06-2.45,0.19-3.65C125.42,102.54,126.61,101.7,128.33,102.46z"/>
		<path class="st15" d="M86.29,46.83c-0.62,0.23-1.25,0.41-1.84,0.69c-1.17,0.55-1.7,0.04-2.12-1.03c-1.14-2.89-2.62-5.59-4.26-8.24
			c-2.72-4.42-5.95-8.31-10.85-10.34c-2.73-1.13-2.6-3.53-3.26-5.85c2.32,0.4,4.54,0.36,6.28,1.95c0.47,1.17-0.22,1.32-1.08,1.13
			c-0.91-0.21-1.73-0.7-2.28-1.04c1.73,2.72,4.69,4.42,7.51,6.28c2.89,2.39,5.42,4.96,6.74,8.68c0.98,2.74,3.03,4.97,4.87,7.24
			C86.15,46.44,86.24,46.62,86.29,46.83z"/>
		<path class="st12" d="M82.62,28.55c3.84,4.82,7.72,9.63,10.11,15.39c0.27,0.64,1.23,1.9-0.04,2.22c-1.14,0.29-2.78,0.92-3.66-0.87
			c-3.01-6.15-6.47-12.02-10.69-17.43c-0.13-0.17-0.17-0.4-0.26-0.6c2.34-0.06,3.59,1.65,4.5,3.29c1.64,2.98,3.82,5.59,5.22,8.13
			c0.45,0.64,0.63,0.19,0.43,0.41c-0.03,0.03-0.09-0.01-0.17-0.13c-1.74-2.81-3.9-5.36-5.31-8.38
			C82.43,29.89,81.99,29.26,82.62,28.55z"/>
		<path class="st16" d="M48.78,46.75c2.12-1.52,3.94-1.9,6.27-1.57c7.05,0.98,13.49,4.07,20.36,5.58c0.75,0.16,2.06,0.34,1.73,1.52
			c-0.36,1.33-1.49,0.67-2.39,0.46c-6.72-1.55-13.13-4.23-19.96-5.39C52.93,47.03,51,47.52,48.78,46.75z"/>
		<path class="st17" d="M118.11,48.9c-3.01,0.32-3.17,0.32-3.05-2.9c0.24-6.58-3.21-11.4-7.56-15.62c-1.44-1.4-1.89-2.36-0.98-4
			c0.39-0.7-0.17-2.12,1.44-1.89c0.1,0.28,0.05-0.07,0.05,0.21c0.01,5.01,3.89,7.46,6.9,10.49c0.21,0.21,0.4,0.43,0.56,0.69
			c1.13,3.18,2,6.44,3.01,9.66C118.82,46.64,118.95,47.86,118.11,48.9z"/>
		<path class="st18" d="M114.98,35.64c-1.45-0.64-2.49-1.76-3.45-2.97c-0.4-0.51-0.72-1.22-1.25-1.49
			c-3.02-1.49-2.49-4.14-2.31-6.69c0.13,0.03,0.25,0.07,0.37,0.13c0.82,0.58,1.2,2.09,2.68,1.26c0.29,0.15,0.59,0.31,0.88,0.46
			c2.15,1.48,3.74,3.33,4.75,5.82c1.29,3.19,2.67,6.35,3.38,9.73c0.29,1.39,0.76,3.06-1.08,3.99c-1.34-2.24-1.36-4.9-2.32-7.27
			c-0.35-0.88-0.56-1.82-0.98-2.67c-0.47-1.23,0.25-3.18-1.95-3.23c0.76,0.67,1.94,1.24,1.49,2.72
			C115.12,35.49,115.05,35.56,114.98,35.64z"/>
		<path class="st19" d="M114.56,107.85c-2.91,0.94-5.92,0.29-8.87,0.5c-1.37,1.25-2.99,0-4.44,0.43l0,0
			c-5.38,0.73-10.81,0.99-16.16,1.96c-2.15,0.39-4.17,1.51-6.45,1.16c-3.04,0.33-5.99,0.97-8.82,2.15c-1.56,0.65-2.96,1.53-4.09,2.8
			c-0.57,0-1.14,0-1.7,0c-0.23-1.16,0.63-1.45,1.41-1.92c4.07-2.48,8.65-3.37,13.2-4.38c5.37-1.2,10.87-1.46,16.26-2.35
			c5.8-0.95,11.57-0.6,17.36-0.74C113.02,107.44,113.88,107.21,114.56,107.85z"/>
		<path class="st20" d="M124.77,32.48c-0.98,2.41-0.12,4.8,0.27,7.13c0.49,2.96-0.72,5.7-0.33,8.56c-0.78,0.02-0.82-0.33-0.81-0.59
			c0.31-4.87-0.46-9.63-1.34-14.39c-0.16-0.89-0.64-1.43-1.17-2.03c-1.57-1.75-3.49-3.15-4.82-5.14c-0.52-0.78-0.91-1.38,0.21-1.92
			c0.73,0.62,1.12,1.51,1.78,2.3c-0.61-0.84-1.04-1.68-1.79-2.29c0.47-0.32,0.95-0.65,1.43-0.98c0.26,0.18,0.52,0.36,0.78,0.55
			c1.94,2.39,3.95,4.74,5.36,7.51C124.74,31.53,124.76,32,124.77,32.48z"/>
		<path class="st21" d="M119,45.84c1.56-2.81,0.1-5.4-0.72-7.95c-0.83-2.58-1.96-5.06-3.07-7.53c-0.72-1.61-2.66-2.29-3.32-4
			c0.61-0.17,1.11,0,1.62,0.39c5.66,4.24,9.02,13.77,7.32,20.63c-0.27,1.08-0.58,1.81-1.85,1.56
			C118.39,47.89,118.33,46.86,119,45.84z"/>
		<path class="st22" d="M46.32,67.58c-0.9,0.37-0.78,0.4-1.02,1.35c-0.18,0.72-1.2,0.34-1.65,0.83c0.51-1.97,1.07-3.91,1.9-5.77
			c0.57-1.29,1.52-1.9,2.95-1.71c-0.11,0.66-0.93,1.01-0.76,1.78c-0.25,1.4,0.94,0.4,1.3,0.77c1.75,0.19,3.55,1.55,5.2-0.26
			c1.29,0.2,2.58,0.31,3.84,0.67c0.35,0.1,0.67,0.28,1.04,0.29c-0.3-0.14-0.6-0.29-0.51-0.71c0.22-0.44,0.59-0.68,1.05-0.8
			c0.85-0.12,1.7-0.09,1.99,0.9c0.2,0.67,0.08,1.34-0.82,1.45c3.13-0.41,5.95,1,8.91,1.61c-0.15,0.6-0.29,1.2-0.44,1.8
			c-1.02-0.48-2.04-0.82-3.05,0c-1.25,0.49-2.46,0.05-3.68-0.12c-0.47-0.27-0.44-0.52-0.12-0.95c0.4-0.53-0.23-0.09-0.29-0.23
			c-3.12-1.57-6.47-1.14-9.76-1.16c-1.25,0.14-2.41-0.31-3.65-0.51c0.3,0.3,0.86-0.08,0.99,0.42c0.13,0.49-0.3,0.63-0.63,0.72
			C48.14,68.18,47.2,68.05,46.32,67.58z"/>
		<path class="st23" d="M88.02,28.43c3.66,5.27,7.22,10.6,8.99,16.88c0.47,1.65,0.21,2.37-1.6,1.45c-0.03-2.19-0.48-4.22-2.19-5.77
			c-3.42-5.03-6.85-10.07-10.27-15.1c1.64-0.3,2.08,1.15,2.74,2.07C86.42,29,87.13,28.88,88.02,28.43z"/>
		<path class="st24" d="M103.47,29.84c1.54,2.23,3.08,4.46,4.61,6.69c0.16,0.24,0.42,0.52,0.41,0.77
			c-0.14,3.98,2.23,7.17,3.33,10.75c0.11,0.36,0,0.73-0.7,1.14c-1.26-3.11-1.83-6.62-3.96-9.15c-2.14-2.53-4.15-5.28-7.33-7.37
			c1.96-0.26,2.34,1.57,3.65,1.9c0.69-2.11-2.4-3.13-1.32-5.19C102.64,29.41,103.13,29.41,103.47,29.84z"/>
		<path class="st25" d="M67.59,72.44c0.71-0.39,0.04-1.87,1.39-1.76c-1.13,5.14-2.32,5.36,2.72,19.07
			c-1.26,0.12-2.49,0.23-3.72,0.35c-0.55-0.31-1.16-0.1-1.73-0.17c-0.53-0.07-1.3,0.3-1.45-0.56c-0.13-0.75,0.56-0.95,1.09-1.18
			c0.47-0.2,0.97-0.35,1.55-0.27c-0.37-0.38-0.97-0.34-1.25-0.78c-0.16-0.55,0.29-0.63,0.63-0.81c-0.98,0.09-1.93,1.48-2.9,0.01
			c0.97-1.29,2.4-0.66,3.49-0.86c0.43-0.01,0.05-0.39,0.16-0.12c-1.01,0.05-2.01,0.23-3.02,0.1c-0.84-1.51,1.16-1.84,1.24-2.98
			c1.45-1.28,0.72-2.98,0.84-4.51C66.66,76.08,65.81,74.02,67.59,72.44z"/>
		<path class="st26" d="M74.23,56.5c-0.71,1.21-1.61,0.82-2.66,0.45c-5.4-1.92-10.86-3.63-16.44-4.97c-0.61-0.3-1.29-0.22-1.92-0.39
			c-0.6-0.17-1.26-0.39-1.14-1.09c0.14-0.79,0.89-0.55,1.46-0.48c0.22,0.03,0.43,0.12,0.71,0.2c-0.33-0.43-1.04-0.55-0.84-1.25
			c0.9,0,1.83-0.26,2.65,0.33c5.36,1.65,10.65,3.55,16.03,5.16C73.06,54.75,74.65,54.63,74.23,56.5z"/>
		<path class="st27" d="M45.4,75.11c0.15-0.03,0.29-0.05,0.43-0.09c1.17-0.32,1.14-0.3,2.08,0.59c0.23,0.23,0.67,0.23,1.02,0.35
			c3.88,0.56,7.78,0.14,11.66,0.23c0.51,0.01,1.03-0.04,1.55-0.02c0.6,0.02,1.29,0.07,1.4,0.78c0.13,0.84-0.56,1.13-1.22,1.28
			c-1.37,0.31-2.81-0.1-4.16,0.38c-2.01,1.13-4.21-0.07-6.27,0.52c-1.66,0.02-3.35,0.31-4.9-0.6c0.29,0.94,2.02,0.16,1.84,1.33
			c-0.12,0.78-1.2,0.58-1.9,0.67c-2.06,0.92-3.1-0.12-3.75-1.93c-0.11-0.28-0.21-0.56-0.32-0.84C43.18,76.37,43.46,74.95,45.4,75.11
			z"/>
		<path class="st28" d="M72.02,25.31c3.24,1.01,5.26,3.52,7.01,6.13c2.78,4.15,5.33,8.46,7.88,12.77c0.51,0.86,1.54,2.23-0.63,2.62
			l-0.14-0.15c-2.36-3.36-4-7.17-6.44-10.47c-1.39-1.88-3.1-3.51-4.09-5.67c0-1.53-1.29-2.03-2.24-2.8
			c-0.16-0.13-0.3-0.27-0.43-0.41C72.55,26.7,71.58,26.32,72.02,25.31z"/>
		<path class="st29" d="M64.48,85.25c1.46,0.18,2.95-0.62,4.78,0.23c-1.94,0.5-3.69-0.04-5.23,0.7c-0.63,0.65-1.48,0.51-2.25,0.56
			c-2,0.11-3.59,0.94-4.73,2.61c-0.76,0.9-2.06,0.65-2.9,1.37c-0.23,0.19-0.49,0.34-0.8,0.37c-0.28-0.31-0.56-0.63-0.85-0.94
			c0.07-0.82-0.48-1.34-0.95-1.88c-1.09-1.27-0.59-1.94,0.85-2.23c1.28-0.27,2.53-0.71,3.84-0.83c1.41-0.13,2.67-0.66,3.9-1.31
			C63.17,82.97,63.3,83.01,64.48,85.25z"/>
		<path class="st30" d="M82.62,28.55c0.24,2.72,2.29,4.51,3.5,6.73c0.96,1.76,2.16,3.38,3.05,5.22c-1.7-1.03-2.21-3-3.48-4.34
			c-2.7-2.84-3.44-7.34-7.6-8.91c-0.42-0.43-0.83-0.86-1.25-1.3c-1.29-1.16-2.71-2.22-3.63-3.73c-0.33-0.54-1.33-1.26,0.15-1.7
			c0.14,0.01,0.27,0.06,0.38,0.14c2.89,2.1,5.76,4.22,8.11,6.94C82.09,27.92,82.36,28.23,82.62,28.55z"/>
		<path class="st31" d="M88.02,28.43c-0.46,0.45-0.74,0.99-0.8,1.68c-1.88-1-2.31-3.38-4.26-4.21c-0.88-0.88-1.71-1.81-2.64-2.63
			c-1.32-1.17,0.46-1.89,0.31-2.95C83.31,22.9,86.23,25.15,88.02,28.43z"/>
		<path class="st32" d="M69.72,67.97c-1.51,0.82-2.81-0.28-4.2-0.51c-1.64-0.27-3.22-0.94-5.09-0.84c0.44-0.53,1.12-0.81,0.84-1.56
			c-0.33-0.88-1.1-0.51-1.69-0.63c-2.83,0.3-5.68-0.37-8.5,0.07c-0.32-0.43-0.33-0.9-0.1-1.37c2.82-0.82,5.66-0.84,8.54-0.25
			c2.58,0.53,5.12,1.19,7.65,1.88c1.31,0.36,2.26,0.99,2.6,2.35C69.75,67.4,69.74,67.68,69.72,67.97z"/>
		<path class="st33" d="M57.38,60.82c-4.42,0-8.85-0.69-13.31,0c1.76-2.83,5.29-3.79,9.36-2.61c-1.15,0.67-2.44-0.06-3.53,0.31
			c2-0.21,4.03,0.18,6.04,0.59C56.74,59.27,57.74,59.53,57.38,60.82z"/>
		<path class="st34" d="M60.44,84.38c-2.41,1.61-5.35,1.3-7.96,2.2c-0.39,0.13-0.97-0.13-1.12,0.43c-0.14,0.53,0.41,0.68,0.71,0.98
			c0.62,0.6,1.98,1.1,0.43,2.16c-2.09-1.76-4.18-3.53-6.27-5.3c0.63-0.63,1.38-0.38,2.06-0.18c2.75,0.8,5.32,0.1,7.87-0.86
			c0.97-0.75,2.03-1.21,3.27-0.84C60.09,83.15,61.02,83.26,60.44,84.38z"/>
		<path class="st35" d="M74.23,56.5c-0.18-1.14-1.12-1.14-1.96-1.41c-5.08-1.64-10.14-3.32-15.2-5.02
			c-0.38-0.13-0.68-0.51-1.02-0.77c3.93,0.25,7.48,2,11.24,2.88c2.07,0.48,4.11,1.07,6.15,1.63C75.56,54.39,75.61,54.59,74.23,56.5z
			"/>
		<path class="st36" d="M68.41,36.15c-1.76-2.74-4.57-4.41-6.84-6.67c1.69,0.06,2.94,1.13,4.12,2c2.35,1.73,5.03,3.05,6.9,5.4
			c0.76,0.95,2.6,0.22,2.94,1.85c0.6,1.66-0.28,1.74-1.35,1.1c-1.44-0.87-2.76-1.94-3.85-3.41c-0.04-0.16-0.13,0.04-0.05,0.12
			c0.78,0.79,0.51,1.06-0.49,0.85C69.15,37.17,68.8,36.64,68.41,36.15z"/>
		<path class="st37" d="M57.38,54.19c4.63,1.34,9.36,2.4,13.85,4.18c0.79,0.31,1.96,0.51,1.26,1.98c-0.67,1.42-1.41,0.52-2.11,0.2
			c-0.86-0.4-1.68-0.89-2.51-1.34c-0.2-1.16-1.19-1.08-2-1.25c-2.49-0.52-5.02-0.81-7.5-1.37c-1.05-0.24-2.21-0.39-2.46-1.77
			C56.22,54.18,56.85,54.29,57.38,54.19z"/>
		<path class="st38" d="M53.39,48.97c0.63,0.82,1.86,0.77,2.53,1.83c-1.3,0.75-2.38-0.82-3.67-0.32c0.77,1.05,2.11,0.72,2.87,1.51
			c-3.3-0.07-6.63,0.41-10.27-0.63C47.79,49.85,50.29,48.35,53.39,48.97z"/>
		<path class="st24" d="M56.02,54.69c1.94,2.09,4.72,1.51,7.1,2.19c1.53,0.43,3.15,0.54,4.69,0.96c0.93,0.25,1.65,0.84,0.07,1.37
			c-4.15-1.28-8.44-1.81-12.72-2.37c-0.69-0.57-1.59-0.61-2.35-0.96c-0.96-0.44-1.61-1.14-0.24-1.98
			C53.74,54.02,54.95,54.08,56.02,54.69z"/>
		<path class="st18" d="M72.02,25.31c0.43,0.63,0.87,1.25,1.3,1.88c-0.34,1.34,1.66,2.11,0.87,3.56c-3.53-1.79-6.41-4.33-8.56-7.81
			c1.08,0.53,2.17,1.06,3.25,1.6c0.67,0.33,1.27,0.57,1.36-0.53C70.84,24.44,71.43,24.88,72.02,25.31z"/>
		<path class="st21" d="M56.95,39.15c-1.63-0.2-3.01,1.1-5.27,0.49c2.88,2.63,6.23,3.03,8.78,4.86c-2.58-0.43-5.18-0.78-7.73-1.34
			c-1.5-0.33-2.22-1.74-3.22-3C52.08,39.53,54.2,37.24,56.95,39.15z"/>
		<path class="st39" d="M53.8,58.23c5.4,0.53,10.85,0.83,15.77,3.5c0.73,0.4,1.97,0.65,1.4,1.81c-0.52,1.08-1.42,0.01-2.13-0.08
			c-0.63-0.08-1.22-0.46-1.83-0.7c-1.55-1.34-3.56-1.42-5.41-1.83c-2.52-0.55-4.89-1.62-7.44-2.04
			C53.85,58.83,53.7,58.58,53.8,58.23z"/>
		<path class="st40" d="M53.85,90.54c0.6-1.44,2.13-0.65,3.07-1.28c2.99-1.2,5.98-2.41,9.3-2.19c0.86-0.15,1.53,0.42,2.39,0.56
			c-0.94,1.17-2.62,0.52-3.5,1.67c0.83,0.89,2.09,0,2.87,0.8c-2.14-0.16-4.08,0.95-6.2,0.92c-0.15-0.13-0.28-0.28-0.41-0.43
			c-0.5-1.04-1.34-0.55-2.1-0.48c-1.66,0.15-3.2,1.11-4.93,0.78C54.13,90.83,53.97,90.71,53.85,90.54z"/>
		<path class="st41" d="M69.77,67.11c-4.09-3.17-8.91-3.76-13.86-4.13c-1.63-0.12-3.18,0.31-4.77,0.13
			c-1.16,0.4-2.11,1.64-3.56,0.87c-0.46-0.96,0.22-1.33,0.89-1.71c6.96-0.54,13.78-0.01,20.3,2.67
			C69.67,65.32,70.58,65.87,69.77,67.11z"/>
		<path class="st42" d="M69.79,37.38c1.28,0.01-0.05-0.89,0.54-1.26c1.24,1.03,2.49,2.12,3.79,3.14c0.67,0.53,1.49,1.07,1.41-0.54
			c0.9,1.03,0.76,2.96,2.69,3.09c0.5,0.46,0.76,1.05,0.93,1.7c0.23,0.86,0.11,1.37-0.95,0.97C75.4,42.12,72.6,39.75,69.79,37.38z"/>
		<path class="st43" d="M56.49,84.4c-3.36,1.42-6.78,1.49-10.25,0.45c-0.44-0.14-0.73-0.45-0.9-0.87c0.25-0.92-1.21-1.81-0.31-2.56
			c0.75-0.63,1.45,0.66,2.31,0.7c0.28,0.01,0.56,0.12,0.84,0.2c1.52,0.63,3.08,1.07,4.75,0.91c0.65,0.33,1.35,0.28,2.05,0.3
			C55.59,83.52,56.49,83.26,56.49,84.4z"/>
		<path class="st44" d="M56.02,54.69c-1.23,0.22-2.35-0.42-3.54-0.46c-0.74-0.23-1.37,0.36-2.2,0.27c0.42,0.89,1.99,0.61,1.75,1.92
			c-2.58,0.57-4.78-0.7-7.5-1.45c4.39-2.62,8.63-1.51,12.85-0.77C57.07,54.75,56.53,54.67,56.02,54.69z"/>
		<path class="st20" d="M119,45.84c0,1.02-0.01,2.05-0.02,3.08c-0.29,0-0.58-0.01-0.87-0.01c0.22-4.72-2.46-8.76-3.14-13.27
			l0.04-0.02c0.29-0.19,0.58-0.06,0.87,0.01C117.78,38.77,118.32,42.32,119,45.84z"/>
		<path class="st39" d="M130.96,47.6c-0.2-1.95-0.38-4.03-0.19-5.84c0.36-3.37-1.88-6.08-1.57-9.29
			C132.14,37.24,133.39,42.21,130.96,47.6z"/>
		<path class="st45" d="M53.8,58.23c4.26,1.17,8.52,2.36,12.79,3.52c0.55,0.15,1.13,0.16,1.55,0.82c-0.42,0.07-0.77,0.13-1.11,0.19
			c-3.17-0.84-6.31-1.88-9.65-1.94c-1.59-2.07-4.13-1.37-6.18-2.11c-0.51-0.18-1.15-0.03-1.73-0.5c1.32,0,2.63,0,3.95,0
			C53.55,58.19,53.68,58.19,53.8,58.23z"/>
		<path class="st46" d="M126.5,25.88c-0.87,0.43-1.01,1.15-0.72,1.99c0.19,0.55,0.49,1.07-0.12,1.54c-1.24-2.41-3.42-4.68-0.98-7.69
			C125.37,23.09,126.14,24.39,126.5,25.88z"/>
		<path class="st47" d="M48.04,82.62c-1.14,0.26-1.98-0.43-2.82-1.1c-0.38,0.97,1.77,1.56,0.12,2.45c-2.01-1.27-1.94-3.38-2.15-5.37
			c1.73-0.35,0.54,1.53,1.56,1.82c0.58-0.01,1.17-0.68,1.96-0.43c0.51,0.25,0.66,0.72,0.72,1.24c0.17,0.42,0.59,0.69,0.7,1.15
			C48.1,82.44,48.07,82.53,48.04,82.62z"/>
		<path class="st48" d="M61.78,90.62c0.02,0.14,0.02,0.27,0,0.41c-1.76,0.91-3.73,1.15-5.61,1.67c-1.44,0.4-2.05-0.76-2.81-1.61
			c0.16-0.18,0.33-0.36,0.49-0.55c0.13,0.03,0.27,0.05,0.41,0.07c1.01,0.56,1.96,0.05,2.94-0.14
			C58.73,90.17,60.28,89.57,61.78,90.62z"/>
		<path class="st49" d="M74.64,45.39c0.48-0.59-0.21-1.21,0.02-1.8c4.27,3.22,4.53,3.52,5.19,6.18
			C77.7,48.56,76.41,46.67,74.64,45.39z"/>
		<path class="st50" d="M124.34,31.18c-2.01-2.34-4.13-4.61-5.36-7.51C122.21,25.14,123.54,27.97,124.34,31.18z"/>
		<path class="st51" d="M73.35,20.52c-0.47,1.83,1.46,2.32,2.04,3.58c0.32,0.69,1.23,1.02,1.45,1.85c-1.31-0.76-2.65-1.48-3.92-2.31
			c-1.5-0.98-1.2-2.57-1.32-4.09C72.41,19.65,72.9,20.04,73.35,20.52z"/>
		<path class="st51" d="M81.83,27.61c-2.6-2.43-5.88-4.07-8.11-6.94C77.38,21.87,79.82,24.48,81.83,27.61z"/>
		<path class="st37" d="M52.03,56.41c-0.36-0.82-1.16-0.73-1.84-0.95c-0.54-0.17-1.17-0.56-1.02-1.22c0.16-0.67,0.85-0.48,1.29-0.3
			c0.67,0.27,1.47-0.55,2.02,0.29c-0.78,1.09,0.21,1.09,0.82,1.4c0.66,0.34,1.68,0.14,1.86,1.21
			C54.11,56.69,53.07,56.55,52.03,56.41z"/>
		<path class="st52" d="M45.4,75.11c-0.95,0.48-2.23,0.66-1.66,2.31c0.12,0.34-0.55,0.27-0.88,0.33c-0.35-1.63-0.04-3.27-0.08-4.9
			c0.58-0.96,1.29-1.14,2.18-0.4C45.13,73.34,41.97,74.77,45.4,75.11z"/>
		<path class="st53" d="M44.96,72.46c-0.77-0.08-1.51-0.04-2.18,0.4c-0.05-0.5-0.08-0.99,0.31-1.38c0.98-0.16,1.93-0.2,2.76,0.47
			c2.81-0.46,5.57,0.31,8.38,0.18C51.15,72.55,48.06,72.71,44.96,72.46z"/>
		<path class="st54" d="M93.23,41c0.18-0.25,0.45-0.5,0.72-0.32c1.22,0.82,2.11,4.61,1.47,6.08C94.69,44.84,93.95,42.92,93.23,41z"
			/>
		<path class="st55" d="M45.86,71.95c-0.93-0.1-1.96,0.39-2.76-0.47c0.06-0.46,0.03-0.96,0.47-1.28
			C44.64,70.37,46.44,69.59,45.86,71.95z"/>
		<path class="st21" d="M111.01,25.89c-0.3,1.33-0.84,1.75-1.76,0.43c-0.36-0.53-0.62-1.13-0.93-1.69
			C109.22,25.04,110.12,25.47,111.01,25.89z"/>
		<path class="st56" d="M78.2,44.49c0.63-0.02,0.88-0.4,0.95-0.97c0.75,0.96,1.22,2.06,1.36,3.46
			C79.74,46.14,78.97,45.31,78.2,44.49z"/>
		<path class="st57" d="M28.51,99.98c-0.74,1.36-2.08,0.61-3.13,0.86C26.28,100.01,27.42,100.09,28.51,99.98z"/>
		<path class="st58" d="M78.64,111.89c4.44-1.48,8.98-2.32,13.66-2.75c3-0.27,5.97-0.31,8.96-0.37c-2.72,1.21-5.74,0.86-8.53,1.72
			c-4.13,1.27-8.56,0.67-12.66,2.04C79.32,112.78,78.94,112.48,78.64,111.89z"/>
		<path class="st58" d="M101.25,108.78c1.41-0.9,2.96-0.27,4.44-0.43c-0.46,1.34-1.43,1.49-2.61,1.11
			C102.46,109.26,101.86,109.01,101.25,108.78z"/>
		<path class="st59" d="M57.78,78.15c1.05-0.8,2.27-0.23,3.39-0.4c0.73-0.11,1.63,0.32,2.24-0.89c-2.11,0-4.07,0-6.03,0
			c-2.05,0-4.1-0.04-6.15,0.02c-0.94,0.03-1.72-0.15-2.31-0.91c2.32-1.03,4.76-0.07,7.13-0.4c1.51-0.21,3.06-0.14,4.59-0.43
			c0.71-0.13,0.34-1.39,1.44-0.99c0.65,0.24,1.86,0.78,1.91-0.82c0.59-0.42,1.22-0.23,1.79-0.14c-2.02-0.41-4.19-0.14-6.24-0.8
			c2.04-1.46,4.44-0.74,6.67-1.03c0.52-0.07,1.35,0.18,1.37,1.09c-0.79,2.01-0.41,4.12-0.47,6.19c-1.75,0.21-3.32,1.8-5.24,0.68
			C60.73,78.17,58.89,79.44,57.78,78.15z"/>
		<path class="st60" d="M46.32,67.58c1.02,0,2.04,0,3.09,0c-0.17-0.88-1.16-0.11-1.32-0.87c1.47,0,2.93,0,4.39,0
			c0.33,0.16,0.74,0.33,0.82,0.68c0.08,0.32-0.47,0.77,0.49,0.63c2.31-0.34,4.66-0.42,6.98,0.06c0.65,0.13,1.29,0.29,1.91-0.08
			c0.57,0,1.15-0.05,1.51,0.56c-0.58,0.61-1.53,0-1.98,0.74c-0.27,0.24-0.56,0.29-0.85,0.03c-3.32,0.4-6.57,0.14-9.78-0.81
			c-0.26-0.08-0.68-0.1-0.85,0.05C48.79,70.25,47.62,68.66,46.32,67.58z"/>
		<path class="st61" d="M61.36,69.33c0.28-0.01,0.57-0.02,0.85-0.03c1.34,0.11,2.74-0.25,4.02,0.45c0.34,0.08,0.77,0.07,0.98,0.27
			c0.31,0.29-0.05,0.54-0.31,0.56c-1.93,0.17-3.81-0.13-5.66-0.67C61.22,69.92,61.32,69.54,61.36,69.33z"/>
		<path class="st62" d="M59.54,72.38c2.09,0.05,4.19,0,6.74,0.8c-1.1,0.07-1.69,0.11-2.28,0.14c-2.21,0.1-4.33-0.87-6.59-0.85
			C58.12,72.45,58.83,72.41,59.54,72.38z"/>
		<path class="st63" d="M103.43,45.82c-0.8,0.3-0.95-0.81-1.64-0.48c-0.38,1.08,0.82,2.08,0.06,3.41c-1.28-3.09-2.51-6.04-3.7-8.99
			c-0.12-0.3-0.35-0.74,0.12-0.94c0.24-0.1,0.64-0.1,0.85,0.04c0.41,0.27,0.94,0.61,1.08,1.04C100.92,42.04,102.2,43.9,103.43,45.82
			z"/>
		<path class="st64" d="M128.2,110c-1.17-1.03-1.9-2.21-2.43-3.5c-0.32-0.78-0.4-1.63,0.54-2.1c0.94-0.47,1.74-0.16,2.3,0.67
			C129.74,106.79,129.23,108.38,128.2,110z"/>
		<path class="st65" d="M74.2,30.75c-0.07-1-0.83-1.64-1.32-2.41c-0.43-0.68-0.42-1.04,0.45-1.15v0c0.59,1.29,2.15,1.75,2.65,3.11
			c1.56,3.09,4.09,5.5,5.91,8.39c1.6,2.55,3.47,4.99,4.26,7.99c-0.28-0.08-0.71-0.07-0.81-0.24c-1.63-2.87-4.09-5.14-5.18-8.49
			C79.19,35,76.72,32.72,74.2,30.75z"/>
		<path class="st66" d="M115.89,35.62c-0.29,0.49-0.58,0.05-0.87-0.01c0.14-1.83-1.8-2.33-2.4-3.72
			C114.98,32.06,116.42,32.99,115.89,35.62z"/>
		<path class="st12" d="M116.77,24.1c1.69,0.31,1.79,1.95,2.46,3.12C117.93,26.57,117.21,25.45,116.77,24.1
			C116.78,24.09,116.77,24.1,116.77,24.1z"/>
		<path class="st67" d="M62.68,68c-3.06,0.93-6.19,0.26-9.29,0.39c-0.84,0.04-0.19-1.33-0.92-1.68c2.65-0.02,5.28-0.15,7.93,0.31
			C61.32,67.19,61.56,68.6,62.68,68z"/>
		<path class="st41" d="M51.15,64.43c2.81-1.51,5.62-0.54,8.43,0c-0.3,0.16-0.6,0.31-0.9,0.47c-1.47,0.48-2.94-0.27-4.42,0
			c-1.63,2.06-3.52,0.82-5.35,0.42C49.16,63.77,50.05,63.83,51.15,64.43z"/>
		<path class="st68" d="M51.15,64.43c-0.85,0.04-1.76-0.11-2.23,0.88c-0.43,0-0.86,0.03-1.29,0c-0.47-0.03-1.14,0.2-1.23-0.51
			c-0.12-0.88,0.67-0.73,1.19-0.83c1.29,0.12,2.18-1.36,3.56-0.87C51.15,63.55,51.15,63.99,51.15,64.43z"/>
		<path class="st69" d="M54.27,64.89c1.47-0.84,2.94-0.4,4.42,0c0.29,0.2,0.59,0.4,1.15,0.79C57.74,65.87,55.99,65.5,54.27,64.89z"
			/>
		<path class="st27" d="M61.76,79.04c1.14,0.08,2.29,0.54,3.29-0.55c0.65-0.7,1.37,0.22,2.07,0.12c0.43,1.04-0.31,2.09,0.26,3.29
			c0.44,0.93-0.99,0.53-1.59,0.71c-2.18,0.25-4.35,0.7-6.57,0.4c-1.57-0.21-3,0.59-4.55,0.66c-0.59,0.02-1.15,0.22-1.69-0.14
			c-1.8,0.51-3.44,0.18-4.93-0.93l0,0c0.95-0.9,2.23-0.43,3.31-0.79c2.1-0.62,4.27-0.68,6.44-0.71c0.42,0,0.81-0.16,1.21-0.24
			c-0.32-0.24-0.87-0.2-0.96-0.75C58.83,78.22,60.3,78.64,61.76,79.04z"/>
		<path class="st70" d="M66.22,87.07c-3.1,0.74-6.09,1.96-9.3,2.19c-0.12-0.43-0.64-0.82,0.07-1.28c2.15-1.4,4.46-2.12,7.05-1.8
			c0.99,1.08,2.1-0.74,3.09,0.19C66.85,86.58,66.53,86.83,66.22,87.07z"/>
		<path class="st71" d="M52.97,83.55c3.3-0.44,6.59-0.92,9.9-1.29c0.96-0.11,2.04-0.44,2.92,0.36c0.4,0.66,0.44,1.2-0.41,1.54
			c-0.47,0.19-0.93,0.45-0.89,1.09c-1.07-1.54-2.44-1.74-4.03-0.88c-1.33-1.72-2.64-1.19-3.96,0.02c-0.56-0.68-1.3-0.53-1.96-0.31
			C53.81,84.33,53.29,84.31,52.97,83.55z"/>
		<path class="st72" d="M61.76,79.04c-1.28,0.12-2.74-0.23-3.46,1.33c0.11,0.51-0.3,0.81-0.59,0.59c-1.22-0.92-2.68-0.56-4.01-0.87
			c-0.43-0.01-0.87-0.01-1.3-0.04c-0.63-0.26-1.93-0.14-0.78-1.39c1.99-0.97,4.19,0.61,6.17-0.51c1.21-0.04,2.39,0.28,3.62,0.07
			C62.13,78.09,61.95,78.63,61.76,79.04z"/>
		<path class="st73" d="M51.61,78.66c-0.55,1.14,0.39,0.78,0.87,0.87c0.12,0.47-0.19,0.7-0.55,0.78c-1.06,0.26-2.06,0.43-2.91,1.33
			c-0.6,0.64-1.51,0.03-2.23-0.33c0.18-0.46,0.23-0.91-0.08-1.34c0.58,0,1.17,0,1.82,0c-0.22-0.7-0.75-0.39-1.08-0.56
			c-0.59-0.3-1.53-0.7-1.21-1.3c0.35-0.66,0.85-0.2,1.53,0.31C48.63,79.07,50.29,78.64,51.61,78.66z"/>
		<path class="st18" d="M75.98,30.3c-1.06-0.89-2.53-1.43-2.65-3.11C74.27,28.18,76.37,28.18,75.98,30.3z"/>
		<path class="st69" d="M63.57,66.22c-0.6-0.16-1.77,0.43-1.59-0.8c0.15-0.94,0.94,0,1.45-0.08c0.8-0.12,1.6,0.06,2.34,0.44
			C65.23,66.92,64.36,66.38,63.57,66.22z"/>
		<path class="st41" d="M63.57,66.22c0.73-0.16,1.6,0.35,2.2-0.43c0.79-0.03,1.59-0.08,2.68,0.99C66.5,66.47,65.01,67.1,63.57,66.22
			z"/>
		<path class="st74" d="M61.78,90.62c-1.92-0.05-3.84-0.14-5.68,0.49c-0.77,0.27-1.43,0.43-1.84-0.5c1.89-0.42,3.77-0.85,5.67-1.24
			C60.92,89.16,61.9,89.1,61.78,90.62z"/>
		<path class="st43" d="M46.79,81.32c2.22,0.43,3.63-1.71,5.69-1.79c0.44,0,0.88,0,1.32,0c0.55,1.39-0.67,1.31-1.35,1.49
			c-0.71,0.19-1.15,0.35-0.85,1.17c-1.1,0.86-2.38,0.25-3.56,0.43C47.73,82.08,46.89,82.05,46.79,81.32z"/>
		<path class="st73" d="M51.6,82.19c-0.33-0.35-0.66-0.71-0.98-1.07c0.99-0.8,2.63-0.1,3.18-1.59c1.49,0.33,3.1,0,4.49,0.84
			c0.79,0.25,1.49-0.6,2.67-0.01C57.96,82.54,54.54,81.28,51.6,82.19z"/>
	</g>
</g>
</svg>
